<svg width="71" height="82" viewBox="0 0 71 82" fill="none" xmlns="http://www.w3.org/2000/svg">
<path d="M41.0062 65.6295H44.1939V78.7554H41.0062V65.6295Z" fill="#F8F8F8"/>
<path d="M11.651 37.6336L13.8841 35.3181L44.2388 65.6463L42.0057 67.9617L11.651 37.6336Z" fill="#F8F8F8"/>
<path d="M10.7225 35.2482H13.9102V65.9245H10.7225V35.2482Z" fill="#F8F8F8"/>
<path d="M0 20.205H3.18775V62.6799H0V20.205Z" fill="#F8F8F8"/>
<path d="M67.5225 20.205H70.7102V62.2374H67.5225V20.205Z" fill="#F8F8F8"/>
<path d="M56.655 20.5H59.8428V51.6187H56.655V20.5Z" fill="#F8F8F8"/>
<path d="M25.9367 9.88132H29.1244V20.0576H25.9367V9.88132Z" fill="#F8F8F8"/>
<path d="M0.289759 0H3.47751V9.8813H0.289759V0Z" fill="#F8F8F8"/>
<path d="M67.8122 3.24458H71V13.1259H67.8122V3.24458Z" fill="#F8F8F8"/>
<path d="M40.1368 13.1259H43.3245V21.5324C43.3245 22.4283 42.6109 23.1547 41.7306 23.1547C40.8504 23.1547 40.1368 22.4283 40.1368 21.5324V13.1259Z" fill="#F8F8F8"/>
<path d="M3.18775 20.205H14.3449V23.4496H3.18772L3.18775 20.205Z" fill="#F8F8F8"/>
<path d="M0.289759 9.8813L25.9367 9.88132L25.9367 13.1259H0.289759V9.8813Z" fill="#F8F8F8"/>
<path d="M40.1368 9.88132H67.8123L67.8122 13.1259L40.1368 13.1259V9.88132Z" fill="#F8F8F8"/>
<path d="M3.47751 0H70.9999L71 3.24458L3.47748 3.24461L3.47751 0Z" fill="#F8F8F8"/>
<path d="M56.655 20.205H67.5225L67.5224 23.4496H56.655V20.205Z" fill="#F8F8F8"/>
<path d="M14.2878 20.205L56.2104 63.148L53.9491 65.4349L12.0266 22.492L14.2878 20.205Z" fill="#F8F8F8"/>
<path d="M28.2191 17.7922L58.9634 49.2847L56.7021 51.5717L25.9579 20.0791L28.2191 17.7922Z" fill="#F8F8F8"/>
<path d="M26.5163 67.5467C26.5163 66.6508 27.2299 65.9244 28.1102 65.9244C28.9905 65.9244 29.7041 66.6508 29.7041 67.5467V82H26.5163V67.5467Z" fill="#F8F8F8"/>
<path d="M29.7041 78.7554L44.1939 78.7554L44.1938 82L29.7041 82L29.7041 78.7554Z" fill="#F8F8F8"/>
<path d="M0 62.6799L10.7224 62.6799L10.7225 65.9245L0 65.9245V62.6799Z" fill="#F8F8F8"/>
<path d="M53.9021 62.2374L70.7102 62.2374L70.7102 65.482H53.9021V62.2374Z" fill="#F8F8F8"/>
</svg>
