<svg width="41" height="49" viewBox="0 0 41 49" fill="none" xmlns="http://www.w3.org/2000/svg">
<path d="M23.6796 38.4522H25.5204V46.1357H23.6796V38.4522Z" fill="#3F4E4F"/>
<path d="M6.72806 22.0644L8.01758 20.709L25.5463 38.4621L24.2568 39.8175L6.72806 22.0644Z" fill="#3F4E4F"/>
<path d="M6.19184 20.6681H8.03266V38.6249H6.19184V20.6681Z" fill="#3F4E4F"/>
<path d="M0 11.8623H1.84082V36.7256H0V11.8623Z" fill="#3F4E4F"/>
<path d="M38.9919 11.8623H40.8327V36.4666H38.9919V11.8623Z" fill="#3F4E4F"/>
<path d="M32.7163 12.035H34.5571V30.2508H32.7163V12.035Z" fill="#3F4E4F"/>
<path d="M14.9775 5.81916H16.8183V11.776H14.9775V5.81916Z" fill="#3F4E4F"/>
<path d="M0.167325 0.0349731H2.00814V5.81915H0.167325V0.0349731Z" fill="#3F4E4F"/>
<path d="M39.1592 1.93424H41V7.71841H39.1592V1.93424Z" fill="#3F4E4F"/>
<path d="M23.1776 7.71842H25.0184V12.6393C25.0184 13.1638 24.6063 13.5889 24.098 13.5889C23.5896 13.5889 23.1776 13.1638 23.1776 12.6393V7.71842Z" fill="#3F4E4F"/>
<path d="M1.84082 11.8623H8.28365V13.7616H1.8408L1.84082 11.8623Z" fill="#3F4E4F"/>
<path d="M0.167325 5.81915L14.9775 5.81916L14.9775 7.71844H0.167325V5.81915Z" fill="#3F4E4F"/>
<path d="M23.1776 5.81916H39.1592L39.1592 7.71841L23.1776 7.71842V5.81916Z" fill="#3F4E4F"/>
<path d="M2.00814 0.0349731H40.9999L41 1.93424L2.00812 1.93425L2.00814 0.0349731Z" fill="#3F4E4F"/>
<path d="M32.7163 11.8623H38.9919L38.9918 13.7616H32.7163V11.8623Z" fill="#3F4E4F"/>
<path d="M8.2507 11.8623L32.4595 36.9996L31.1537 38.3383L6.94491 13.201L8.2507 11.8623Z" fill="#3F4E4F"/>
<path d="M16.2955 10.4499L34.0493 28.8846L32.7435 30.2233L14.9897 11.7886L16.2955 10.4499Z" fill="#3F4E4F"/>
<path d="M15.3122 39.5745C15.3122 39.05 15.7243 38.6249 16.2327 38.6249C16.741 38.6249 17.1531 39.05 17.1531 39.5745V48.035H15.3122V39.5745Z" fill="#3F4E4F"/>
<path d="M17.153 46.1357L25.5204 46.1357L25.5204 48.035L17.1531 48.035L17.153 46.1357Z" fill="#3F4E4F"/>
<path d="M0 36.7256L6.19183 36.7256L6.19184 38.6249L0 38.6249V36.7256Z" fill="#3F4E4F"/>
<path d="M31.1265 36.4666L40.8327 36.4666L40.8327 38.3659H31.1265V36.4666Z" fill="#3F4E4F"/>
</svg>
